<svg xmlns="http://www.w3.org/2000/svg" viewBox="0 0 24 24"><defs><linearGradient id="a" x1="12" y1=".08" x2="12" y2="24.25" gradientUnits="userSpaceOnUse"><stop offset="0" stop-color="#fff"/><stop offset="1"/></linearGradient></defs><g style="isolation:isolate"><path fill="#eeb10b" d="M0 0h24v24H0z"/><path style="mix-blend-mode:overlay" opacity=".48" fill="url(#a)" d="M0 0h24v24H0z"/><path d="M18 17.55c0 .15.06.34 0 .41s-.27 0-.41 0H6v-1.05a.84.84 0 0 1 .39-.69 2.07 2.07 0 0 1 .24-.17 9.67 9.67 0 0 1 1.73-.79L10 14.7a.52.52 0 0 0 .39-.56v-.76a.65.65 0 0 0-.15-.45 2.57 2.57 0 0 1-.52-1.21 1.74 1.74 0 0 0-.17-.63 2.68 2.68 0 0 1-.33-1 .65.65 0 0 1 0-.39.79.79 0 0 0 0-.43v-.43a2.43 2.43 0 0 1 0-.76A2.38 2.38 0 0 1 11 6.15a3.83 3.83 0 0 1 1.41-.1 2.5 2.5 0 0 1 2.13 1.62 2.25 2.25 0 0 1 .09 1.09 1.78 1.78 0 0 0 0 1 1 1 0 0 1 0 .24 2.67 2.67 0 0 1-.28 1 1.84 1.84 0 0 0-.21.58 2.62 2.62 0 0 1-.49 1.29.81.81 0 0 0-.21.55 6 6 0 0 0 0 .85.45.45 0 0 0 .26.4 2.68 2.68 0 0 0 .47.18 22.43 22.43 0 0 1 2.51 1 3.72 3.72 0 0 1 .87.54.83.83 0 0 1 .27.55c.1.16.12.39.18.61z" fill="#fff"/></g></svg>